<svg id="my-svg" width="100%" xmlns="http://www.w3.org/2000/svg" xmlns:xlink="http://www.w3.org/1999/xlink" class="flowchart" style="max-width: 2240.48px; background-color: transparent;" viewBox="0 0 2240.4765625 930.673828125" role="graphics-document document" aria-roledescription="flowchart-v2"><style>#my-svg{font-family:"trebuchet ms",verdana,arial,sans-serif;font-size:16px;fill:#333;}@keyframes edge-animation-frame{from{stroke-dashoffset:0;}}@keyframes dash{to{stroke-dashoffset:0;}}#my-svg .edge-animation-slow{stroke-dasharray:9,5!important;stroke-dashoffset:900;animation:dash 50s linear infinite;stroke-linecap:round;}#my-svg .edge-animation-fast{stroke-dasharray:9,5!important;stroke-dashoffset:900;animation:dash 20s linear infinite;stroke-linecap:round;}#my-svg .error-icon{fill:#552222;}#my-svg .error-text{fill:#552222;stroke:#552222;}#my-svg .edge-thickness-normal{stroke-width:1px;}#my-svg .edge-thickness-thick{stroke-width:3.5px;}#my-svg .edge-pattern-solid{stroke-dasharray:0;}#my-svg .edge-thickness-invisible{stroke-width:0;fill:none;}#my-svg .edge-pattern-dashed{stroke-dasharray:3;}#my-svg .edge-pattern-dotted{stroke-dasharray:2;}#my-svg .marker{fill:#333333;stroke:#333333;}#my-svg .marker.cross{stroke:#333333;}#my-svg svg{font-family:"trebuchet ms",verdana,arial,sans-serif;font-size:16px;}#my-svg p{margin:0;}#my-svg .label{font-family:"trebuchet ms",verdana,arial,sans-serif;color:#333;}#my-svg .cluster-label text{fill:#333;}#my-svg .cluster-label span{color:#333;}#my-svg .cluster-label span p{background-color:transparent;}#my-svg .label text,#my-svg span{fill:#333;color:#333;}#my-svg .node rect,#my-svg .node circle,#my-svg .node ellipse,#my-svg .node polygon,#my-svg .node path{fill:#ECECFF;stroke:#9370DB;stroke-width:1px;}#my-svg .rough-node .label text,#my-svg .node .label text,#my-svg .image-shape .label,#my-svg .icon-shape .label{text-anchor:middle;}#my-svg .node .katex path{fill:#000;stroke:#000;stroke-width:1px;}#my-svg .rough-node .label,#my-svg .node .label,#my-svg .image-shape .label,#my-svg .icon-shape .label{text-align:center;}#my-svg .node.clickable{cursor:pointer;}#my-svg .root .anchor path{fill:#333333!important;stroke-width:0;stroke:#333333;}#my-svg .arrowheadPath{fill:#333333;}#my-svg .edgePath .path{stroke:#333333;stroke-width:2.0px;}#my-svg .flowchart-link{stroke:#333333;fill:none;}#my-svg .edgeLabel{background-color:rgba(232,232,232, 0.8);text-align:center;}#my-svg .edgeLabel p{background-color:rgba(232,232,232, 0.8);}#my-svg .edgeLabel rect{opacity:0.5;background-color:rgba(232,232,232, 0.8);fill:rgba(232,232,232, 0.8);}#my-svg .labelBkg{background-color:rgba(232, 232, 232, 0.5);}#my-svg .cluster rect{fill:#ffffde;stroke:#aaaa33;stroke-width:1px;}#my-svg .cluster text{fill:#333;}#my-svg .cluster span{color:#333;}#my-svg div.mermaidTooltip{position:absolute;text-align:center;max-width:200px;padding:2px;font-family:"trebuchet ms",verdana,arial,sans-serif;font-size:12px;background:hsl(80, 100%, 96.2745098039%);border:1px solid #aaaa33;border-radius:2px;pointer-events:none;z-index:100;}#my-svg .flowchartTitleText{text-anchor:middle;font-size:18px;fill:#333;}#my-svg rect.text{fill:none;stroke-width:0;}#my-svg .icon-shape,#my-svg .image-shape{background-color:rgba(232,232,232, 0.8);text-align:center;}#my-svg .icon-shape p,#my-svg .image-shape p{background-color:rgba(232,232,232, 0.8);padding:2px;}#my-svg .icon-shape rect,#my-svg .image-shape rect{opacity:0.5;background-color:rgba(232,232,232, 0.8);fill:rgba(232,232,232, 0.8);}#my-svg .label-icon{display:inline-block;height:1em;overflow:visible;vertical-align:-0.125em;}#my-svg .node .label-icon path{fill:currentColor;stroke:revert;stroke-width:revert;}#my-svg :root{--mermaid-font-family:"trebuchet ms",verdana,arial,sans-serif;}#my-svg .infra&gt;*{fill:#e8f4fd!important;stroke:#2196F3!important;stroke-width:2px!important;}#my-svg .infra span{fill:#e8f4fd!important;stroke:#2196F3!important;stroke-width:2px!important;}#my-svg .service&gt;*{fill:#fff3e0!important;stroke:#FF9800!important;stroke-width:2px!important;}#my-svg .service span{fill:#fff3e0!important;stroke:#FF9800!important;stroke-width:2px!important;}#my-svg .core&gt;*{fill:#f3e5f5!important;stroke:#9C27B0!important;stroke-width:2px!important;}#my-svg .core span{fill:#f3e5f5!important;stroke:#9C27B0!important;stroke-width:2px!important;}#my-svg .client&gt;*{fill:#e8f5e9!important;stroke:#4CAF50!important;stroke-width:2px!important;}#my-svg .client span{fill:#e8f5e9!important;stroke:#4CAF50!important;stroke-width:2px!important;}</style><g><marker id="my-svg_flowchart-v2-pointEnd" class="marker flowchart-v2" viewBox="0 0 10 10" refX="5" refY="5" markerUnits="userSpaceOnUse" markerWidth="8" markerHeight="8" orient="auto"><path d="M 0 0 L 10 5 L 0 10 z" class="arrowMarkerPath" style="stroke-width: 1; stroke-dasharray: 1, 0;"/></marker><marker id="my-svg_flowchart-v2-pointStart" class="marker flowchart-v2" viewBox="0 0 10 10" refX="4.5" refY="5" markerUnits="userSpaceOnUse" markerWidth="8" markerHeight="8" orient="auto"><path d="M 0 5 L 10 10 L 10 0 z" class="arrowMarkerPath" style="stroke-width: 1; stroke-dasharray: 1, 0;"/></marker><marker id="my-svg_flowchart-v2-circleEnd" class="marker flowchart-v2" viewBox="0 0 10 10" refX="11" refY="5" markerUnits="userSpaceOnUse" markerWidth="11" markerHeight="11" orient="auto"><circle cx="5" cy="5" r="5" class="arrowMarkerPath" style="stroke-width: 1; stroke-dasharray: 1, 0;"/></marker><marker id="my-svg_flowchart-v2-circleStart" class="marker flowchart-v2" viewBox="0 0 10 10" refX="-1" refY="5" markerUnits="userSpaceOnUse" markerWidth="11" markerHeight="11" orient="auto"><circle cx="5" cy="5" r="5" class="arrowMarkerPath" style="stroke-width: 1; stroke-dasharray: 1, 0;"/></marker><marker id="my-svg_flowchart-v2-crossEnd" class="marker cross flowchart-v2" viewBox="0 0 11 11" refX="12" refY="5.2" markerUnits="userSpaceOnUse" markerWidth="11" markerHeight="11" orient="auto"><path d="M 1,1 l 9,9 M 10,1 l -9,9" class="arrowMarkerPath" style="stroke-width: 2; stroke-dasharray: 1, 0;"/></marker><marker id="my-svg_flowchart-v2-crossStart" class="marker cross flowchart-v2" viewBox="0 0 11 11" refX="-1" refY="5.2" markerUnits="userSpaceOnUse" markerWidth="11" markerHeight="11" orient="auto"><path d="M 1,1 l 9,9 M 10,1 l -9,9" class="arrowMarkerPath" style="stroke-width: 2; stroke-dasharray: 1, 0;"/></marker><g class="root"><g class="clusters"><g class="cluster" id="Core" data-look="classic"><rect style="" x="8" y="338" width="753.75" height="408.4264831542969"/><g class="cluster-label" transform="translate(347.3125, 338)"><foreignObject width="75.125" height="24"><div xmlns="http://www.w3.org/1999/xhtml" style="display: table-cell; white-space: nowrap; line-height: 1.5; max-width: 200px; text-align: center;"><span class="nodeLabel"><p>Core Logic</p></span></div></foreignObject></g></g><g class="cluster" id="Process" data-look="classic"><rect style="" x="82.828125" y="136" width="2117.546875" height="152"/><g class="cluster-label" transform="translate(1047.5546875, 136)"><foreignObject width="188.09375" height="24"><div xmlns="http://www.w3.org/1999/xhtml" style="display: table-cell; white-space: nowrap; line-height: 1.5; max-width: 200px; text-align: center;"><span class="nodeLabel"><p>Kraken Process (cmd/app)</p></span></div></foreignObject></g></g></g><g class="edgePaths"><path d="M2033.5,62L2033.5,68.167C2033.5,74.333,2033.5,86.667,2033.5,99C2033.5,111.333,2033.5,123.667,2033.5,133.333C2033.5,143,2033.5,150,2033.5,153.5L2033.5,157" id="L_Browser_API_0" class="edge-thickness-normal edge-pattern-solid edge-thickness-normal edge-pattern-solid flowchart-link" style=";" data-edge="true" data-et="edge" data-id="L_Browser_API_0" data-points="W3sieCI6MjAzMy41LCJ5Ijo2Mn0seyJ4IjoyMDMzLjUsInkiOjk5fSx7IngiOjIwMzMuNSwieSI6MTM2fSx7IngiOjIwMzMuNSwieSI6MTYxfV0=" marker-end="url(#my-svg_flowchart-v2-pointEnd)"/><path d="M1940.578,223.652L1855.048,234.376C1769.517,245.101,1598.456,266.551,1512.925,281.442C1427.395,296.333,1427.395,304.667,1427.395,313C1427.395,321.333,1427.395,329.667,1427.395,346.5C1427.395,363.333,1427.395,388.667,1427.395,418C1427.395,447.333,1427.395,480.667,1381.395,512.561C1335.396,544.456,1243.397,574.912,1197.398,590.14L1151.399,605.368" id="L_API_Postgres_0" class="edge-thickness-normal edge-pattern-solid edge-thickness-normal edge-pattern-solid flowchart-link" style=";" data-edge="true" data-et="edge" data-id="L_API_Postgres_0" data-points="W3sieCI6MTk0MC41NzgxMjUsInkiOjIyMy42NTE1NDA2Mzc5MDk4Mn0seyJ4IjoxNDI3LjM5NDUzMTI1LCJ5IjoyODh9LHsieCI6MTQyNy4zOTQ1MzEyNSwieSI6MzEzfSx7IngiOjE0MjcuMzk0NTMxMjUsInkiOjMzOH0seyJ4IjoxNDI3LjM5NDUzMTI1LCJ5Ijo0MTR9LHsieCI6MTQyNy4zOTQ1MzEyNSwieSI6NTE0fSx7IngiOjExNDcuNjAxNTYyNSwieSI6NjA2LjYyNTM5MzE0ODAxNjd9XQ==" marker-end="url(#my-svg_flowchart-v2-pointEnd)"/><path d="M2126.422,260.082L2135.414,264.735C2144.406,269.388,2162.391,278.694,2171.383,287.514C2180.375,296.333,2180.375,304.667,2180.375,313C2180.375,321.333,2180.375,329.667,2180.375,346.5C2180.375,363.333,2180.375,388.667,2180.375,418C2180.375,447.333,2180.375,480.667,2124.682,514.14C2068.989,547.613,1957.602,581.226,1901.909,598.033L1846.216,614.839" id="L_API_Redis_0" class="edge-thickness-normal edge-pattern-solid edge-thickness-normal edge-pattern-solid flowchart-link" style=";" data-edge="true" data-et="edge" data-id="L_API_Redis_0" data-points="W3sieCI6MjEyNi40MjE4NzUsInkiOjI2MC4wODIxMjc2NTk1NzQ0NH0seyJ4IjoyMTgwLjM3NSwieSI6Mjg4fSx7IngiOjIxODAuMzc1LCJ5IjozMTN9LHsieCI6MjE4MC4zNzUsInkiOjMzOH0seyJ4IjoyMTgwLjM3NSwieSI6NDE0fSx7IngiOjIxODAuMzc1LCJ5Ijo1MTR9LHsieCI6MTg0Mi4zODY3MTg3NSwieSI6NjE1Ljk5NDYzNzQxMjY1OTh9XQ==" marker-end="url(#my-svg_flowchart-v2-pointEnd)"/><path d="M2054.366,263L2056.07,267.167C2057.775,271.333,2061.184,279.667,2062.889,288C2064.594,296.333,2064.594,304.667,2064.594,313C2064.594,321.333,2064.594,329.667,2064.594,346.5C2064.594,363.333,2064.594,388.667,2064.594,418C2064.594,447.333,2064.594,480.667,2028.175,512.44C1991.756,544.214,1918.919,574.427,1882.5,589.534L1846.081,604.641" id="L_API_Redis_2" class="edge-thickness-normal edge-pattern-solid edge-thickness-normal edge-pattern-solid flowchart-link" style=";" data-edge="true" data-et="edge" data-id="L_API_Redis_2" data-points="W3sieCI6MjA1NC4zNjU1NDI3NjMxNTgsInkiOjI2M30seyJ4IjoyMDY0LjU5Mzc1LCJ5IjoyODh9LHsieCI6MjA2NC41OTM3NSwieSI6MzEzfSx7IngiOjIwNjQuNTkzNzUsInkiOjMzOH0seyJ4IjoyMDY0LjU5Mzc1LCJ5Ijo0MTR9LHsieCI6MjA2NC41OTM3NSwieSI6NTE0fSx7IngiOjE4NDIuMzg2NzE4NzUsInkiOjYwNi4xNzM0NzEwOTIyNDUyfV0=" marker-end="url(#my-svg_flowchart-v2-pointEnd)"/><path d="M1491.25,232.58L1450.137,241.817C1409.025,251.053,1326.799,269.527,1285.687,282.93C1244.574,296.333,1244.574,304.667,1244.574,313C1244.574,321.333,1244.574,329.667,1244.574,346.5C1244.574,363.333,1244.574,388.667,1244.574,418C1244.574,447.333,1244.574,480.667,1228.935,509.689C1213.296,538.712,1182.018,563.423,1166.379,575.779L1150.74,588.135" id="L_Scheduler_Postgres_0" class="edge-thickness-normal edge-pattern-solid edge-thickness-normal edge-pattern-solid flowchart-link" style=";" data-edge="true" data-et="edge" data-id="L_Scheduler_Postgres_0" data-points="W3sieCI6MTQ5MS4yNSwieSI6MjMyLjU3OTkxNDMxNzcxNzI4fSx7IngiOjEyNDQuNTc0MjE4NzUsInkiOjI4OH0seyJ4IjoxMjQ0LjU3NDIxODc1LCJ5IjozMTN9LHsieCI6MTI0NC41NzQyMTg3NSwieSI6MzM4fSx7IngiOjEyNDQuNTc0MjE4NzUsInkiOjQxNH0seyJ4IjoxMjQ0LjU3NDIxODc1LCJ5Ijo1MTR9LHsieCI6MTE0Ny42MDE1NjI1LCJ5Ijo1OTAuNjE0ODkzMzAwMjE1M31d" marker-end="url(#my-svg_flowchart-v2-pointEnd)"/><path d="M1674.453,234.42L1710.939,243.35C1747.426,252.28,1820.398,270.14,1856.885,283.237C1893.371,296.333,1893.371,304.667,1893.371,313C1893.371,321.333,1893.371,329.667,1893.371,346.5C1893.371,363.333,1893.371,388.667,1893.371,418C1893.371,447.333,1893.371,480.667,1882.565,508.338C1871.759,536.009,1850.147,558.019,1839.341,569.024L1828.535,580.028" id="L_Scheduler_Redis_0" class="edge-thickness-normal edge-pattern-solid edge-thickness-normal edge-pattern-solid flowchart-link" style=";" data-edge="true" data-et="edge" data-id="L_Scheduler_Redis_0" data-points="W3sieCI6MTY3NC40NTMxMjUsInkiOjIzNC40MTk1ODQxMTQzMjQ1Mn0seyJ4IjoxODkzLjM3MTA5Mzc1LCJ5IjoyODh9LHsieCI6MTg5My4zNzEwOTM3NSwieSI6MzEzfSx7IngiOjE4OTMuMzcxMDkzNzUsInkiOjMzOH0seyJ4IjoxODkzLjM3MTA5Mzc1LCJ5Ijo0MTR9LHsieCI6MTg5My4zNzEwOTM3NSwieSI6NTE0fSx7IngiOjE4MjUuNzMxOTcwMjcwNzA0MywieSI6NTgyLjg4MjM0NTI3MDA0MzZ9XQ==" marker-end="url(#my-svg_flowchart-v2-pointEnd)"/><path d="M1175.695,222.23L1273.851,233.191C1372.007,244.153,1568.318,266.077,1666.473,281.205C1764.629,296.333,1764.629,304.667,1764.629,313C1764.629,321.333,1764.629,329.667,1764.629,346.5C1764.629,363.333,1764.629,388.667,1764.629,418C1764.629,447.333,1764.629,480.667,1763.93,507.156C1763.231,533.645,1761.834,553.289,1761.135,563.111L1760.436,572.934" id="L_Worker_Redis_0" class="edge-thickness-normal edge-pattern-solid edge-thickness-normal edge-pattern-solid flowchart-link" style=";" data-edge="true" data-et="edge" data-id="L_Worker_Redis_0" data-points="W3sieCI6MTE3NS42OTUzMTI1LCJ5IjoyMjIuMjI5NzcwOTE3ODc4Mjh9LHsieCI6MTc2NC42Mjg5MDYyNSwieSI6Mjg4fSx7IngiOjE3NjQuNjI4OTA2MjUsInkiOjMxM30seyJ4IjoxNzY0LjYyODkwNjI1LCJ5IjozMzh9LHsieCI6MTc2NC42Mjg5MDYyNSwieSI6NDE0fSx7IngiOjE3NjQuNjI4OTA2MjUsInkiOjUxNH0seyJ4IjoxNzYwLjE1MjA4MzIwNzkwNjgsInkiOjU3Ni45MjM2MTcyOTcwODQ0fV0=" marker-end="url(#my-svg_flowchart-v2-pointEnd)"/><path d="M1175.695,224.297L1254.785,234.914C1333.874,245.531,1492.052,266.766,1571.141,281.549C1650.23,296.333,1650.23,304.667,1650.23,313C1650.23,321.333,1650.23,329.667,1650.23,346.5C1650.23,363.333,1650.23,388.667,1650.23,418C1650.23,447.333,1650.23,480.667,1658.428,507.809C1666.625,534.951,1683.019,555.902,1691.216,566.377L1699.414,576.853" id="L_Worker_Redis_2" class="edge-thickness-normal edge-pattern-solid edge-thickness-normal edge-pattern-solid flowchart-link" style=";" data-edge="true" data-et="edge" data-id="L_Worker_Redis_2" data-points="W3sieCI6MTE3NS42OTUzMTI1LCJ5IjoyMjQuMjk2ODg2MTA0NDIyMX0seyJ4IjoxNjUwLjIzMDQ2ODc1LCJ5IjoyODh9LHsieCI6MTY1MC4yMzA0Njg3NSwieSI6MzEzfSx7IngiOjE2NTAuMjMwNDY4NzUsInkiOjMzOH0seyJ4IjoxNjUwLjIzMDQ2ODc1LCJ5Ijo0MTR9LHsieCI6MTY1MC4yMzA0Njg3NSwieSI6NTE0fSx7IngiOjE3MDEuODc4NzQ4MjgwOTk3MywieSI6NTgwLjAwMjgzNTkxNjAyNH1d" marker-end="url(#my-svg_flowchart-v2-pointEnd)"/><path d="M992.492,219.341L849.695,230.784C706.898,242.227,421.305,265.114,278.508,280.723C135.711,296.333,135.711,304.667,135.711,313C135.711,321.333,135.711,329.667,135.711,337.333C135.711,345,135.711,352,135.711,355.5L135.711,359" id="L_Worker_Monitor_0" class="edge-thickness-normal edge-pattern-solid edge-thickness-normal edge-pattern-solid flowchart-link" style=";" data-edge="true" data-et="edge" data-id="L_Worker_Monitor_0" data-points="W3sieCI6OTkyLjQ5MjE4NzUsInkiOjIxOS4zNDA2MjA5NTgzNzQ4N30seyJ4IjoxMzUuNzEwOTM3NSwieSI6Mjg4fSx7IngiOjEzNS43MTA5Mzc1LCJ5IjozMTN9LHsieCI6MTM1LjcxMDkzNzUsInkiOjMzOH0seyJ4IjoxMzUuNzEwOTM3NSwieSI6MzYzfV0=" marker-end="url(#my-svg_flowchart-v2-pointEnd)"/><path d="M992.492,221.982L891.522,232.985C790.552,243.988,588.612,265.994,487.642,281.164C386.672,296.333,386.672,304.667,386.672,313C386.672,321.333,386.672,329.667,386.672,337.333C386.672,345,386.672,352,386.672,355.5L386.672,359" id="L_Worker_Incident_0" class="edge-thickness-normal edge-pattern-solid edge-thickness-normal edge-pattern-solid flowchart-link" style=";" data-edge="true" data-et="edge" data-id="L_Worker_Incident_0" data-points="W3sieCI6OTkyLjQ5MjE4NzUsInkiOjIyMS45ODIwNzY4NDU1MjQ4fSx7IngiOjM4Ni42NzE4NzUsInkiOjI4OH0seyJ4IjozODYuNjcxODc1LCJ5IjozMTN9LHsieCI6Mzg2LjY3MTg3NSwieSI6MzM4fSx7IngiOjM4Ni42NzE4NzUsInkiOjM2M31d" marker-end="url(#my-svg_flowchart-v2-pointEnd)"/><path d="M1084.094,263L1084.094,267.167C1084.094,271.333,1084.094,279.667,1084.094,288C1084.094,296.333,1084.094,304.667,1084.094,313C1084.094,321.333,1084.094,329.667,1084.094,346.5C1084.094,363.333,1084.094,388.667,1084.094,418C1084.094,447.333,1084.094,480.667,1081.506,504.954C1078.918,529.242,1073.743,544.484,1071.155,552.105L1068.567,559.726" id="L_Worker_Postgres_0" class="edge-thickness-normal edge-pattern-solid edge-thickness-normal edge-pattern-solid flowchart-link" style=";" data-edge="true" data-et="edge" data-id="L_Worker_Postgres_0" data-points="W3sieCI6MTA4NC4wOTM3NSwieSI6MjYzfSx7IngiOjEwODQuMDkzNzUsInkiOjI4OH0seyJ4IjoxMDg0LjA5Mzc1LCJ5IjozMTN9LHsieCI6MTA4NC4wOTM3NSwieSI6MzM4fSx7IngiOjEwODQuMDkzNzUsInkiOjQxNH0seyJ4IjoxMDg0LjA5Mzc1LCJ5Ijo1MTR9LHsieCI6MTA2Ny4yODA5OTk5MjA2NDk1LCJ5Ijo1NjMuNTEzNjI1NDc1NDUxfV0=" marker-end="url(#my-svg_flowchart-v2-pointEnd)"/><path d="M380.102,465L379.05,473.167C377.997,481.333,375.893,497.667,467.322,523.629C558.751,549.591,743.712,585.181,836.193,602.977L928.674,620.772" id="L_Incident_Postgres_0" class="edge-thickness-normal edge-pattern-solid edge-thickness-normal edge-pattern-solid flowchart-link" style=";" data-edge="true" data-et="edge" data-id="L_Incident_Postgres_0" data-points="W3sieCI6MzgwLjEwMTY0MDYyNSwieSI6NDY1fSx7IngiOjM3My43ODkwNjI1LCJ5Ijo1MTR9LHsieCI6OTMyLjYwMTU2MjUsInkiOjYyMS41Mjc4NjcyNjc3MzE0fV0=" marker-end="url(#my-svg_flowchart-v2-pointEnd)"/><path d="M485.745,465L501.61,473.167C517.475,481.333,549.204,497.667,745.687,525.549C942.171,553.432,1303.408,592.864,1484.026,612.579L1664.645,632.295" id="L_Incident_Redis_0" class="edge-thickness-normal edge-pattern-solid edge-thickness-normal edge-pattern-solid flowchart-link" style=";" data-edge="true" data-et="edge" data-id="L_Incident_Redis_0" data-points="W3sieCI6NDg1Ljc0NTM1MTU2MjUsInkiOjQ2NX0seyJ4Ijo1ODAuOTMzNTkzNzUsInkiOjUxNH0seyJ4IjoxNjY4LjYyMTA5Mzc1LCJ5Ijo2MzIuNzI5MzI0ODU1MDc5NH1d" marker-end="url(#my-svg_flowchart-v2-pointEnd)"/><path d="M312.754,465L300.917,473.167C289.081,481.333,265.407,497.667,253.571,518.036C241.734,538.404,241.734,562.809,241.734,575.011L241.734,587.213" id="L_Incident_Autofix_0" class="edge-thickness-normal edge-pattern-solid edge-thickness-normal edge-pattern-solid flowchart-link" style=";" data-edge="true" data-et="edge" data-id="L_Incident_Autofix_0" data-points="W3sieCI6MzEyLjc1Mzc0OTk5OTk5OTk3LCJ5Ijo0NjV9LHsieCI6MjQxLjczNDM3NSwieSI6NTE0fSx7IngiOjI0MS43MzQzNzUsInkiOjU5MS4yMTMyNDE1NzcxNDg0fV0=" marker-end="url(#my-svg_flowchart-v2-pointEnd)"/><path d="M241.734,693.213L241.734,702.082C241.734,710.951,241.734,728.689,241.734,743.724C241.734,758.76,241.734,771.093,241.734,782.76C241.734,794.426,241.734,805.426,241.734,810.926L241.734,816.426" id="L_Autofix_Scripts_0" class="edge-thickness-normal edge-pattern-solid edge-thickness-normal edge-pattern-solid flowchart-link" style=";" data-edge="true" data-et="edge" data-id="L_Autofix_Scripts_0" data-points="W3sieCI6MjQxLjczNDM3NSwieSI6NjkzLjIxMzI0MTU3NzE0ODR9LHsieCI6MjQxLjczNDM3NSwieSI6NzQ2LjQyNjQ4MzE1NDI5Njl9LHsieCI6MjQxLjczNDM3NSwieSI6NzgzLjQyNjQ4MzE1NDI5Njl9LHsieCI6MjQxLjczNDM3NSwieSI6ODIwLjQyNjQ4MzE1NDI5Njl9XQ==" marker-end="url(#my-svg_flowchart-v2-pointEnd)"/><path d="M942.492,222.138L1041.673,233.115C1140.853,244.092,1339.214,266.046,1438.394,281.19C1537.574,296.333,1537.574,304.667,1537.574,313C1537.574,321.333,1537.574,329.667,1537.574,346.5C1537.574,363.333,1537.574,388.667,1537.574,418C1537.574,447.333,1537.574,480.667,1558.869,512.224C1580.164,543.782,1622.753,573.564,1644.048,588.455L1665.343,603.346" id="L_Notifier_Redis_0" class="edge-thickness-normal edge-pattern-solid edge-thickness-normal edge-pattern-solid flowchart-link" style=";" data-edge="true" data-et="edge" data-id="L_Notifier_Redis_0" data-points="W3sieCI6OTQyLjQ5MjE4NzUsInkiOjIyMi4xMzgxNzU0NDY5Nzk2Nn0seyJ4IjoxNTM3LjU3NDIxODc1LCJ5IjoyODh9LHsieCI6MTUzNy41NzQyMTg3NSwieSI6MzEzfSx7IngiOjE1MzcuNTc0MjE4NzUsInkiOjMzOH0seyJ4IjoxNTM3LjU3NDIxODc1LCJ5Ijo0MTR9LHsieCI6MTUzNy41NzQyMTg3NSwieSI6NTE0fSx7IngiOjE2NjguNjIxMDkzNzUsInkiOjYwNS42MzgzMDMzMzA0NzIxfV0=" marker-end="url(#my-svg_flowchart-v2-pointEnd)"/><path d="M859.536,263L860.242,267.167C860.948,271.333,862.361,279.667,863.067,288C863.773,296.333,863.773,304.667,863.773,313C863.773,321.333,863.773,329.667,863.773,346.5C863.773,363.333,863.773,388.667,863.773,418C863.773,447.333,863.773,480.667,874.763,507.848C885.753,535.03,907.732,556.06,918.722,566.575L929.711,577.09" id="L_Notifier_Postgres_0" class="edge-thickness-normal edge-pattern-solid edge-thickness-normal edge-pattern-solid flowchart-link" style=";" data-edge="true" data-et="edge" data-id="L_Notifier_Postgres_0" data-points="W3sieCI6ODU5LjUzNTY3MDIzMDI2MzEsInkiOjI2M30seyJ4Ijo4NjMuNzczNDM3NSwieSI6Mjg4fSx7IngiOjg2My43NzM0Mzc1LCJ5IjozMTN9LHsieCI6ODYzLjc3MzQzNzUsInkiOjMzOH0seyJ4Ijo4NjMuNzczNDM3NSwieSI6NDE0fSx7IngiOjg2My43NzM0Mzc1LCJ5Ijo1MTR9LHsieCI6OTMyLjYwMTU2MjUsInkiOjU3OS44NTU3MjkwODA3OTMxfV0=" marker-end="url(#my-svg_flowchart-v2-pointEnd)"/><path d="M759.289,244.372L738.714,251.643C718.138,258.915,676.987,273.457,656.411,284.895C635.836,296.333,635.836,304.667,635.836,313C635.836,321.333,635.836,329.667,635.836,337.333C635.836,345,635.836,352,635.836,355.5L635.836,359" id="L_Notifier_SMTP_0" class="edge-thickness-normal edge-pattern-solid edge-thickness-normal edge-pattern-solid flowchart-link" style=";" data-edge="true" data-et="edge" data-id="L_Notifier_SMTP_0" data-points="W3sieCI6NzU5LjI4OTA2MjUsInkiOjI0NC4zNzE4NTMwODk2OTM3Nn0seyJ4Ijo2MzUuODM1OTM3NSwieSI6Mjg4fSx7IngiOjYzNS44MzU5Mzc1LCJ5IjozMTN9LHsieCI6NjM1LjgzNTkzNzUsInkiOjMzOH0seyJ4Ijo2MzUuODM1OTM3NSwieSI6MzYzfV0=" marker-end="url(#my-svg_flowchart-v2-pointEnd)"/></g><g class="edgeLabels"><g class="edgeLabel" transform="translate(2033.5, 99)"><g class="label" data-id="L_Browser_API_0" transform="translate(-38.6875, -12)"><foreignObject width="77.375" height="24"><div xmlns="http://www.w3.org/1999/xhtml" class="labelBkg" style="display: table-cell; white-space: nowrap; line-height: 1.5; max-width: 200px; text-align: center;"><span class="edgeLabel"><p>HTTP REST</p></span></div></foreignObject></g></g><g class="edgeLabel" transform="translate(1427.39453125, 414)"><g class="label" data-id="L_API_Postgres_0" transform="translate(-39.2109375, -12)"><foreignObject width="78.421875" height="24"><div xmlns="http://www.w3.org/1999/xhtml" class="labelBkg" style="display: table-cell; white-space: nowrap; line-height: 1.5; max-width: 200px; text-align: center;"><span class="edgeLabel"><p>read/write</p></span></div></foreignObject></g></g><g class="edgeLabel" transform="translate(2180.375, 414)"><g class="label" data-id="L_API_Redis_0" transform="translate(-52.1015625, -24)"><foreignObject width="104.203125" height="48"><div xmlns="http://www.w3.org/1999/xhtml" class="labelBkg" style="display: table-cell; white-space: nowrap; line-height: 1.5; max-width: 200px; text-align: center;"><span class="edgeLabel"><p>EnqueueCheck<br />(run-now)</p></span></div></foreignObject></g></g><g class="edgeLabel" transform="translate(2064.59375, 414)"><g class="label" data-id="L_API_Redis_2" transform="translate(-43.6796875, -24)"><foreignObject width="87.359375" height="48"><div xmlns="http://www.w3.org/1999/xhtml" class="labelBkg" style="display: table-cell; white-space: nowrap; line-height: 1.5; max-width: 200px; text-align: center;"><span class="edgeLabel"><p>EnqueueFix<br />(manual fix)</p></span></div></foreignObject></g></g><g class="edgeLabel" transform="translate(1244.57421875, 414)"><g class="label" data-id="L_Scheduler_Postgres_0" transform="translate(-91.921875, -24)"><foreignObject width="183.84375" height="48"><div xmlns="http://www.w3.org/1999/xhtml" class="labelBkg" style="display: table-cell; white-space: nowrap; line-height: 1.5; max-width: 200px; text-align: center;"><span class="edgeLabel"><p>AcquireDueProjects<br />FOR UPDATE SKIP LOCKED</p></span></div></foreignObject></g></g><g class="edgeLabel" transform="translate(1893.37109375, 414)"><g class="label" data-id="L_Scheduler_Redis_0" transform="translate(-52.1015625, -24)"><foreignObject width="104.203125" height="48"><div xmlns="http://www.w3.org/1999/xhtml" class="labelBkg" style="display: table-cell; white-space: nowrap; line-height: 1.5; max-width: 200px; text-align: center;"><span class="edgeLabel"><p>EnqueueCheck<br />(scheduled)</p></span></div></foreignObject></g></g><g class="edgeLabel" transform="translate(1764.62890625, 414)"><g class="label" data-id="L_Worker_Redis_0" transform="translate(-52.7109375, -24)"><foreignObject width="105.421875" height="48"><div xmlns="http://www.w3.org/1999/xhtml" class="labelBkg" style="display: table-cell; white-space: nowrap; line-height: 1.5; max-width: 200px; text-align: center;"><span class="edgeLabel"><p>DequeueCheck<br />BRPOP</p></span></div></foreignObject></g></g><g class="edgeLabel" transform="translate(1650.23046875, 414)"><g class="label" data-id="L_Worker_Redis_2" transform="translate(-41.6875, -24)"><foreignObject width="83.375" height="48"><div xmlns="http://www.w3.org/1999/xhtml" class="labelBkg" style="display: table-cell; white-space: nowrap; line-height: 1.5; max-width: 200px; text-align: center;"><span class="edgeLabel"><p>DequeueFix<br />BRPOP</p></span></div></foreignObject></g></g><g class="edgeLabel"><g class="label" data-id="L_Worker_Monitor_0" transform="translate(0, 0)"><foreignObject width="0" height="0"><div xmlns="http://www.w3.org/1999/xhtml" class="labelBkg" style="display: table-cell; white-space: nowrap; line-height: 1.5; max-width: 200px; text-align: center;"><span class="edgeLabel"></span></div></foreignObject></g></g><g class="edgeLabel"><g class="label" data-id="L_Worker_Incident_0" transform="translate(0, 0)"><foreignObject width="0" height="0"><div xmlns="http://www.w3.org/1999/xhtml" class="labelBkg" style="display: table-cell; white-space: nowrap; line-height: 1.5; max-width: 200px; text-align: center;"><span class="edgeLabel"></span></div></foreignObject></g></g><g class="edgeLabel" transform="translate(1084.09375, 414)"><g class="label" data-id="L_Worker_Postgres_0" transform="translate(-39.2109375, -12)"><foreignObject width="78.421875" height="24"><div xmlns="http://www.w3.org/1999/xhtml" class="labelBkg" style="display: table-cell; white-space: nowrap; line-height: 1.5; max-width: 200px; text-align: center;"><span class="edgeLabel"><p>read/write</p></span></div></foreignObject></g></g><g class="edgeLabel" transform="translate(628.93784, 563.09626)"><g class="label" data-id="L_Incident_Postgres_0" transform="translate(-39.2109375, -12)"><foreignObject width="78.421875" height="24"><div xmlns="http://www.w3.org/1999/xhtml" class="labelBkg" style="display: table-cell; white-space: nowrap; line-height: 1.5; max-width: 200px; text-align: center;"><span class="edgeLabel"><p>read/write</p></span></div></foreignObject></g></g><g class="edgeLabel" transform="translate(1071.56353, 567.55597)"><g class="label" data-id="L_Incident_Redis_0" transform="translate(-50.3515625, -24)"><foreignObject width="100.703125" height="48"><div xmlns="http://www.w3.org/1999/xhtml" class="labelBkg" style="display: table-cell; white-space: nowrap; line-height: 1.5; max-width: 200px; text-align: center;"><span class="edgeLabel"><p>EnqueueEmail<br />(alert)</p></span></div></foreignObject></g></g><g class="edgeLabel"><g class="label" data-id="L_Incident_Autofix_0" transform="translate(0, 0)"><foreignObject width="0" height="0"><div xmlns="http://www.w3.org/1999/xhtml" class="labelBkg" style="display: table-cell; white-space: nowrap; line-height: 1.5; max-width: 200px; text-align: center;"><span class="edgeLabel"></span></div></foreignObject></g></g><g class="edgeLabel" transform="translate(241.734375, 783.4264831542969)"><g class="label" data-id="L_Autofix_Scripts_0" transform="translate(-35.375, -12)"><foreignObject width="70.75" height="24"><div xmlns="http://www.w3.org/1999/xhtml" class="labelBkg" style="display: table-cell; white-space: nowrap; line-height: 1.5; max-width: 200px; text-align: center;"><span class="edgeLabel"><p>bash exec</p></span></div></foreignObject></g></g><g class="edgeLabel" transform="translate(1537.57421875, 414)"><g class="label" data-id="L_Notifier_Redis_0" transform="translate(-50.96875, -24)"><foreignObject width="101.9375" height="48"><div xmlns="http://www.w3.org/1999/xhtml" class="labelBkg" style="display: table-cell; white-space: nowrap; line-height: 1.5; max-width: 200px; text-align: center;"><span class="edgeLabel"><p>DequeueEmail<br />BRPOP</p></span></div></foreignObject></g></g><g class="edgeLabel" transform="translate(863.7734375, 414)"><g class="label" data-id="L_Notifier_Postgres_0" transform="translate(-41.546875, -12)"><foreignObject width="83.09375" height="24"><div xmlns="http://www.w3.org/1999/xhtml" class="labelBkg" style="display: table-cell; white-space: nowrap; line-height: 1.5; max-width: 200px; text-align: center;"><span class="edgeLabel"><p>load profile</p></span></div></foreignObject></g></g><g class="edgeLabel"><g class="label" data-id="L_Notifier_SMTP_0" transform="translate(0, 0)"><foreignObject width="0" height="0"><div xmlns="http://www.w3.org/1999/xhtml" class="labelBkg" style="display: table-cell; white-space: nowrap; line-height: 1.5; max-width: 200px; text-align: center;"><span class="edgeLabel"></span></div></foreignObject></g></g></g><g class="nodes"><g class="node default client" id="flowchart-Browser-0" transform="translate(2033.5, 35)"><rect class="basic label-container" style="fill:#e8f5e9 !important;stroke:#4CAF50 !important;stroke-width:2px !important" x="-80.828125" y="-27" width="161.65625" height="54"/><g class="label" style="" transform="translate(-50.828125, -12)"><rect/><foreignObject width="101.65625" height="24"><div xmlns="http://www.w3.org/1999/xhtml" style="display: table-cell; white-space: nowrap; line-height: 1.5; max-width: 200px; text-align: center;"><span class="nodeLabel"><p>🌐 Browser UI</p></span></div></foreignObject></g></g><g class="node default service" id="flowchart-API-1" transform="translate(2033.5, 212)"><rect class="basic label-container" style="fill:#fff3e0 !important;stroke:#FF9800 !important;stroke-width:2px !important" x="-92.921875" y="-51" width="185.84375" height="102"/><g class="label" style="" transform="translate(-62.921875, -36)"><rect/><foreignObject width="125.84375" height="72"><div xmlns="http://www.w3.org/1999/xhtml" style="display: table-cell; white-space: nowrap; line-height: 1.5; max-width: 200px; text-align: center;"><span class="nodeLabel"><p>🔌 API Server<br /><i>internal/api</i><br />chi router · :8080</p></span></div></foreignObject></g></g><g class="node default service" id="flowchart-Scheduler-2" transform="translate(1582.8515625, 212)"><rect class="basic label-container" style="fill:#fff3e0 !important;stroke:#FF9800 !important;stroke-width:2px !important" x="-91.6015625" y="-51" width="183.203125" height="102"/><g class="label" style="" transform="translate(-61.6015625, -36)"><rect/><foreignObject width="123.203125" height="72"><div xmlns="http://www.w3.org/1999/xhtml" style="display: table-cell; white-space: nowrap; line-height: 1.5; max-width: 200px; text-align: center;"><span class="nodeLabel"><p>⏱️ Scheduler<br /><i>internal/services</i><br />Tick every 2s</p></span></div></foreignObject></g></g><g class="node default service" id="flowchart-Worker-3" transform="translate(1084.09375, 212)"><rect class="basic label-container" style="fill:#fff3e0 !important;stroke:#FF9800 !important;stroke-width:2px !important" x="-91.6015625" y="-51" width="183.203125" height="102"/><g class="label" style="" transform="translate(-61.6015625, -36)"><rect/><foreignObject width="123.203125" height="72"><div xmlns="http://www.w3.org/1999/xhtml" style="display: table-cell; white-space: nowrap; line-height: 1.5; max-width: 200px; text-align: center;"><span class="nodeLabel"><p>⚙️ Worker<br /><i>internal/services</i><br />Dequeue loop</p></span></div></foreignObject></g></g><g class="node default service" id="flowchart-Notifier-4" transform="translate(850.890625, 212)"><rect class="basic label-container" style="fill:#fff3e0 !important;stroke:#FF9800 !important;stroke-width:2px !important" x="-91.6015625" y="-51" width="183.203125" height="102"/><g class="label" style="" transform="translate(-61.6015625, -36)"><rect/><foreignObject width="123.203125" height="72"><div xmlns="http://www.w3.org/1999/xhtml" style="display: table-cell; white-space: nowrap; line-height: 1.5; max-width: 200px; text-align: center;"><span class="nodeLabel"><p>📧 Notifier<br /><i>internal/services</i><br />Dequeue loop</p></span></div></foreignObject></g></g><g class="node default core" id="flowchart-Monitor-5" transform="translate(135.7109375, 414)"><rect class="basic label-container" style="fill:#f3e5f5 !important;stroke:#9C27B0 !important;stroke-width:2px !important" x="-92.7109375" y="-51" width="185.421875" height="102"/><g class="label" style="" transform="translate(-62.7109375, -36)"><rect/><foreignObject width="125.421875" height="72"><div xmlns="http://www.w3.org/1999/xhtml" style="display: table-cell; white-space: nowrap; line-height: 1.5; max-width: 200px; text-align: center;"><span class="nodeLabel"><p>🔍 Monitor<br /><i>internal/monitor</i><br />HTTP · TCP · Ping</p></span></div></foreignObject></g></g><g class="node default core" id="flowchart-Incident-6" transform="translate(386.671875, 414)"><rect class="basic label-container" style="fill:#f3e5f5 !important;stroke:#9C27B0 !important;stroke-width:2px !important" x="-108.25" y="-51" width="216.5" height="102"/><g class="label" style="" transform="translate(-78.25, -36)"><rect/><foreignObject width="156.5" height="72"><div xmlns="http://www.w3.org/1999/xhtml" style="display: table-cell; white-space: nowrap; line-height: 1.5; max-width: 200px; text-align: center;"><span class="nodeLabel"><p>🚨 Incident Service<br /><i>internal/incident</i><br />Open · Resolve · Alert</p></span></div></foreignObject></g></g><g class="node default core" id="flowchart-Autofix-7" transform="translate(241.734375, 642.2132415771484)"><rect class="basic label-container" style="fill:#f3e5f5 !important;stroke:#9C27B0 !important;stroke-width:2px !important" x="-113.0078125" y="-51" width="226.015625" height="102"/><g class="label" style="" transform="translate(-83.0078125, -36)"><rect/><foreignObject width="166.015625" height="72"><div xmlns="http://www.w3.org/1999/xhtml" style="display: table-cell; white-space: nowrap; line-height: 1.5; max-width: 200px; text-align: center;"><span class="nodeLabel"><p>🔧 Autofix Engine<br /><i>internal/autofix</i><br />Sandboxed bash scripts</p></span></div></foreignObject></g></g><g class="node default core" id="flowchart-SMTP-8" transform="translate(635.8359375, 414)"><rect class="basic label-container" style="fill:#f3e5f5 !important;stroke:#9C27B0 !important;stroke-width:2px !important" x="-90.9140625" y="-51" width="181.828125" height="102"/><g class="label" style="" transform="translate(-60.9140625, -36)"><rect/><foreignObject width="121.828125" height="72"><div xmlns="http://www.w3.org/1999/xhtml" style="display: table-cell; white-space: nowrap; line-height: 1.5; max-width: 200px; text-align: center;"><span class="nodeLabel"><p>✉️ SMTP Client<br /><i>internal/notifier</i><br />smtp.SendMail()</p></span></div></foreignObject></g></g><g class="node default infra" id="flowchart-Postgres-9" transform="translate(1040.1015625, 642.2132415771484)"><path d="M0,15.808823529411764 a107.5,15.808823529411764 0,0,0 215,0 a107.5,15.808823529411764 0,0,0 -215,0 l0,126.80882352941177 a107.5,15.808823529411764 0,0,0 215,0 l0,-126.80882352941177" class="basic label-container" style="fill:#e8f4fd !important;stroke:#2196F3 !important;stroke-width:2px !important" transform="translate(-107.5, -79.21323529411765)"/><g class="label" style="" transform="translate(-100, -38)"><rect/><foreignObject width="200" height="96"><div xmlns="http://www.w3.org/1999/xhtml" style="display: table; white-space: break-spaces; line-height: 1.5; max-width: 200px; text-align: center; width: 200px;"><span class="nodeLabel"><p>🐘 PostgreSQL<br />Projects · Checks · Incidents<br />Logs · Uptime · Fixes</p></span></div></foreignObject></g></g><g class="node default infra" id="flowchart-Redis-10" transform="translate(1755.50390625, 642.2132415771484)"><path d="M0,14.54029600962293 a86.8828125,14.54029600962293 0,0,0 173.765625,0 a86.8828125,14.54029600962293 0,0,0 -173.765625,0 l0,101.54029600962294 a86.8828125,14.54029600962293 0,0,0 173.765625,0 l0,-101.54029600962294" class="basic label-container" style="fill:#e8f4fd !important;stroke:#2196F3 !important;stroke-width:2px !important" transform="translate(-86.8828125, -65.3104440144344)"/><g class="label" style="" transform="translate(-79.3828125, -26)"><rect/><foreignObject width="158.765625" height="72"><div xmlns="http://www.w3.org/1999/xhtml" style="display: table-cell; white-space: nowrap; line-height: 1.5; max-width: 200px; text-align: center;"><span class="nodeLabel"><p>⚡ Redis<br />Job Queues<br />checks · emails · fixes</p></span></div></foreignObject></g></g><g class="node default infra" id="flowchart-Scripts-11" transform="translate(241.734375, 871.5501861572266)"><path d="M0,13.08246931235848 a68.609375,13.08246931235848 0,0,0 137.21875,0 a68.609375,13.08246931235848 0,0,0 -137.21875,0 l0,76.08246931235848 a68.609375,13.08246931235848 0,0,0 137.21875,0 l0,-76.08246931235848" class="basic label-container" style="fill:#e8f4fd !important;stroke:#2196F3 !important;stroke-width:2px !important" transform="translate(-68.609375, -51.123703968537725)"/><g class="label" style="" transform="translate(-61.109375, -14)"><rect/><foreignObject width="122.21875" height="48"><div xmlns="http://www.w3.org/1999/xhtml" style="display: table-cell; white-space: nowrap; line-height: 1.5; max-width: 200px; text-align: center;"><span class="nodeLabel"><p>📁 scripts/fixes/<br />.sh fix scripts</p></span></div></foreignObject></g></g></g></g></g></svg>